<svg width="253" height="56" viewBox="0 0 253 56" fill="none" xmlns="http://www.w3.org/2000/svg">
<path d="M18.7385 23.112V45H12.1145V10.92H17.3945L35.0105 33.384V10.968H41.6345V45H36.1145L18.7385 23.112ZM79.5879 39.192V45H55.9239V10.92H79.1559V16.728H62.5479V24.936H76.8999V30.312H62.5479V39.192H79.5879ZM89.2786 27.72C89.2786 25.64 89.6466 23.608 90.3826 21.624C91.1506 19.608 92.2546 17.784 93.6946 16.152C95.1346 14.488 96.8946 13.176 98.9746 12.216C101.055 11.224 103.423 10.728 106.079 10.728C109.215 10.728 111.919 11.416 114.191 12.792C116.495 14.168 118.207 15.96 119.327 18.168L114.239 21.672C113.663 20.392 112.911 19.384 111.983 18.648C111.055 17.88 110.063 17.352 109.007 17.064C107.951 16.744 106.911 16.584 105.887 16.584C104.223 16.584 102.767 16.92 101.519 17.592C100.303 18.264 99.2786 19.144 98.4466 20.232C97.6146 21.32 96.9906 22.536 96.5746 23.88C96.1906 25.224 95.9986 26.568 95.9986 27.912C95.9986 29.416 96.2386 30.872 96.7186 32.28C97.1986 33.656 97.8706 34.888 98.7346 35.976C99.6306 37.032 100.687 37.88 101.903 38.52C103.151 39.128 104.511 39.432 105.983 39.432C107.039 39.432 108.111 39.256 109.199 38.904C110.287 38.552 111.295 37.992 112.223 37.224C113.151 36.456 113.871 35.464 114.383 34.248L119.807 37.368C119.135 39.064 118.031 40.504 116.495 41.688C114.991 42.872 113.295 43.768 111.407 44.376C109.519 44.984 107.647 45.288 105.791 45.288C103.359 45.288 101.135 44.792 99.1186 43.8C97.1026 42.776 95.3586 41.432 93.8866 39.768C92.4466 38.072 91.3106 36.184 90.4786 34.104C89.6786 31.992 89.2786 29.864 89.2786 27.72ZM145.571 45.24C143.075 45.24 140.803 44.76 138.755 43.8C136.739 42.84 134.995 41.544 133.523 39.912C132.083 38.248 130.963 36.392 130.163 34.344C129.363 32.264 128.963 30.136 128.963 27.96C128.963 25.688 129.379 23.528 130.211 21.48C131.075 19.4 132.243 17.56 133.715 15.96C135.219 14.328 136.979 13.048 138.995 12.12C141.043 11.16 143.283 10.68 145.715 10.68C148.179 10.68 150.419 11.176 152.435 12.168C154.483 13.16 156.227 14.488 157.667 16.152C159.107 17.816 160.227 19.672 161.027 21.72C161.827 23.768 162.227 25.88 162.227 28.056C162.227 30.296 161.811 32.456 160.979 34.536C160.147 36.584 158.979 38.424 157.475 40.056C156.003 41.656 154.243 42.92 152.195 43.848C150.179 44.776 147.971 45.24 145.571 45.24ZM135.683 27.96C135.683 29.432 135.907 30.856 136.355 32.232C136.803 33.608 137.443 34.84 138.275 35.928C139.139 36.984 140.179 37.832 141.395 38.472C142.643 39.08 144.051 39.384 145.619 39.384C147.219 39.384 148.643 39.064 149.891 38.424C151.139 37.752 152.179 36.872 153.011 35.784C153.843 34.664 154.467 33.432 154.883 32.088C155.331 30.712 155.555 29.336 155.555 27.96C155.555 26.488 155.315 25.08 154.835 23.736C154.387 22.36 153.731 21.144 152.867 20.088C152.035 19 150.995 18.152 149.747 17.544C148.531 16.904 147.155 16.584 145.619 16.584C143.987 16.584 142.547 16.92 141.299 17.592C140.083 18.232 139.059 19.096 138.227 20.184C137.395 21.272 136.755 22.488 136.307 23.832C135.891 25.176 135.683 26.552 135.683 27.96ZM174.508 45V10.92H189.58C191.148 10.92 192.588 11.24 193.9 11.88C195.244 12.52 196.396 13.384 197.356 14.472C198.348 15.56 199.1 16.776 199.612 18.12C200.156 19.464 200.428 20.84 200.428 22.248C200.428 23.688 200.172 25.08 199.66 26.424C199.18 27.736 198.476 28.888 197.548 29.88C196.62 30.872 195.532 31.64 194.284 32.184L202.06 45H194.764L187.756 33.576H181.132V45H174.508ZM181.132 27.768H189.436C190.268 27.768 191.004 27.528 191.644 27.048C192.284 26.536 192.796 25.864 193.18 25.032C193.564 24.2 193.756 23.272 193.756 22.248C193.756 21.16 193.532 20.216 193.084 19.416C192.636 18.584 192.06 17.928 191.356 17.448C190.684 16.968 189.948 16.728 189.148 16.728H181.132V27.768ZM213.63 45V10.92H226.014C229.726 10.92 232.83 11.688 235.326 13.224C237.822 14.728 239.694 16.776 240.942 19.368C242.19 21.928 242.814 24.776 242.814 27.912C242.814 31.368 242.126 34.376 240.75 36.936C239.374 39.496 237.422 41.48 234.894 42.888C232.398 44.296 229.438 45 226.014 45H213.63ZM236.142 27.912C236.142 25.704 235.742 23.768 234.942 22.104C234.142 20.408 232.99 19.096 231.486 18.168C229.982 17.208 228.158 16.728 226.014 16.728H220.254V39.192H226.014C228.19 39.192 230.03 38.712 231.534 37.752C233.038 36.76 234.174 35.416 234.942 33.72C235.742 31.992 236.142 30.056 236.142 27.912Z" fill="url(#paint0_linear_2_66)"/>
<defs>
<linearGradient id="paint0_linear_2_66" x1="39.7568" y1="56" x2="214.305" y2="56" gradientUnits="userSpaceOnUse">
<stop stop-color="#5865F2"/>
<stop offset="1" stop-color="#E0234E"/>
</linearGradient>
</defs>
</svg>
